Coordinates
version=1
nRows=17
nColumns=24
inDegrees=yes

Units are S.I. units (second, meters, Newtons, ...)
Angles are in degrees.

endheader
time	pelvis_tilt	pelvis_list	pelvis_rotation	pelvis_tx	pelvis_ty	pelvis_tz	hip_flexion_r	hip_adduction_r	hip_rotation_r	knee_angle_r	ankle_angle_r	subtalar_angle_r	mtp_angle_r	hip_flexion_l	hip_adduction_l	hip_rotation_l	knee_angle_l	ankle_angle_l	subtalar_angle_l	mtp_angle_l	lumbar_extension	lumbar_bending	lumbar_rotation
      6.56500000	     36.35534007	     -0.93458900	      2.34949660	      1.41065423	      0.65988788	     -0.24692748	    -51.66349246	      4.98283127	     -4.23336160	    -13.48970145	     21.69412010	     14.21505183	      0.00000000	    -14.06493645	     -0.97335264	    -12.64440174	     -2.19789081	      8.75062404	     14.76310944	      0.00000000	    -64.53849933	      2.71866849	      3.45381339
      6.57000000	     36.44741206	     -0.98482257	      2.19152386	      1.41641874	      0.65954940	     -0.24702755	    -51.71893024	      4.78711601	     -4.18842471	    -14.62082675	     21.33675972	     14.43199599	      0.00000000	    -14.20112199	     -0.96047080	    -12.45294192	     -2.44436380	      8.49781803	     14.93052791	      0.00000000	    -64.57349467	      2.54580878	      3.42796315
      6.57500000	     36.56602112	     -1.06124623	      1.94831007	      1.42222042	      0.65927656	     -0.24711047	    -51.73564984	      4.51926122	     -4.15058642	    -15.87037981	     20.92076561	     14.79341777	      0.00000000	    -14.35835082	     -0.95966531	    -12.29152090	     -2.87519075	      8.27246926	     15.05118371	      0.00000000	    -64.62863501	      2.33415896	      3.48214127
      6.58000000	     36.69678398	     -1.14085821	      1.61495118	      1.42810833	      0.65906370	     -0.24715028	    -51.70619551	      4.16335013	     -4.12886134	    -17.22600164	     20.43206905	     15.21220263	      0.00000000	    -14.53405755	     -0.94227001	    -12.13010845	     -3.45728158	      8.05043019	     15.08670572	      0.00000000	    -64.67663416	      2.05093541	      3.59862725
      6.58500000	     36.85290205	     -1.15089436	      1.34182424	      1.43398309	      0.65886356	     -0.24719269	    -51.63936061	      3.80779446	     -4.17777495	    -18.69663680	     19.81781965	     15.55306983	      0.00000000	    -14.70525319	     -0.87264047	    -11.92954129	     -4.18276988	      7.77346260	     15.07930297	      0.00000000	    -64.75388869	      1.76980119	      3.58504663
      6.59000000	     37.01001787	     -1.16870071	      0.98842811	      1.43993781	      0.65870530	     -0.24721921	    -51.51650145	      3.36567496	     -4.26830382	    -20.25662212	     19.11956616	     16.00436653	      0.00000000	    -14.87618588	     -0.78181978	    -11.65599651	     -5.03230439	      7.49600987	     14.87364337	      0.00000000	    -64.80849977	      1.43211833	      3.64840433
      6.59500000	     37.18168821	     -1.14196315	      0.66632711	      1.44588243	      0.65856732	     -0.24728324	    -51.34044640	      2.90328459	     -4.42876360	    -21.92141913	     18.27431079	     16.41360911	      0.00000000	    -15.04529096	     -0.64214647	    -11.32159408	     -5.96892812	      7.16895569	     14.57900796	      0.00000000	    -64.87968841	      1.09781403	      3.62450383
      6.60000000	     37.35862265	     -1.08366870	      0.35246027	      1.45184391	      0.65845103	     -0.24737392	    -51.11053775	      2.40522326	     -4.66325105	    -23.66676204	     17.28083338	     16.82112021	      0.00000000	    -15.20845021	     -0.45763327	    -10.89286844	     -6.97718678	      6.81373902	     14.14313431	      0.00000000	    -64.94833747	      0.75941342	      3.55341103
      6.60500000	     37.53768837	     -0.98599989	      0.06243043	      1.45781231	      0.65835096	     -0.24751809	    -50.82532649	      1.87647436	     -4.96934809	    -25.48310303	     16.12174480	     17.20500446	      0.00000000	    -15.36111734	     -0.21860958	    -10.37118859	     -8.03967968	      6.44646913	     13.56615005	      0.00000000	    -65.01407459	      0.42670455	      3.43049116
      6.61000000	     37.71923734	     -0.85703002	     -0.20883057	      1.46378595	      0.65827621	     -0.24770963	    -50.48851616	      1.31827103	     -5.33203399	    -27.35362926	     14.78567824	     17.54895130	      0.00000000	    -15.51136516	      0.06965487	     -9.76131647	     -9.13331118	      6.07853399	     12.86136746	      0.00000000	    -65.07523860	      0.09829248	      3.26203265
      6.61500000	     37.89997912	     -0.70045729	     -0.46104562	      1.46975705	      0.65822417	     -0.24794671	    -50.10032825	      0.73337190	     -5.74823021	    -29.26398083	     13.27266491	     17.83306726	      0.00000000	    -15.65573614	      0.40502558	     -9.06123082	    -10.25031201	      5.72859753	     12.03063512	      0.00000000	    -65.13390834	     -0.22189015	      3.05475308
      6.62000000	     38.07655671	     -0.50617371	     -0.66849877	      1.47570936	      0.65818822	     -0.24827527	    -49.65850443	      0.13460257	     -6.21009132	    -31.20487834	     11.57467124	     18.04475007	      0.00000000	    -15.79013652	      0.79403395	     -8.29453167	    -11.37857201	      5.42381891	     11.09609810	      0.00000000	    -65.18965021	     -0.51019864	      2.80275330
      6.62500000	     38.24468884	     -0.28988370	     -0.84171414	      1.48165183	      0.65817364	     -0.24865875	    -49.16748879	     -0.47224654	     -6.70703727	    -33.15217382	      9.71356825	     18.16954627	      0.00000000	    -15.91770250	      1.21804110	     -7.46251835	    -12.50694376	      5.18168063	     10.09092927	      0.00000000	    -65.23426110	     -0.77091961	      2.51305289
      6.63000000	     38.40945267	     -0.06247389	     -0.98928092	      1.48757673	      0.65819720	     -0.24908772	    -48.63571524	     -1.08255530	     -7.20951553	    -35.08884334	      7.69907377	     18.19496764	      0.00000000	    -16.05748171	      1.66481824	     -6.62227730	    -13.60904002	      5.00814054	      9.05927824	      0.00000000	    -65.27018549	     -1.00786759	      2.20388599
      6.63500000	     38.50741825	      0.20337694	     -1.01920328	      1.49355017	      0.65817651	     -0.24967020	    -48.02598705	     -1.65580845	     -7.80782183	    -36.98460998	      5.59095487	     18.20481156	      0.00000000	    -16.11203215	      2.14161580	     -5.60382025	    -14.74481049	      5.04622472	      7.96362351	      0.00000000	    -65.22563829	     -1.15329019	      1.76987891
      6.64000000	     38.65353919	      0.44306390	     -1.11445715	      1.49941985	      0.65826681	     -0.25016895	    -47.41227203	     -2.24955815	     -8.27546054	    -38.86515860	      3.41855836	     18.02146459	      0.00000000	    -16.27306650	      2.61019372	     -4.78463533	    -15.78178006	      5.05462341	      6.97435806	      0.00000000	    -65.24355689	     -1.33929845	      1.45700030
      6.64500000	     38.83302912	      0.66009572	     -1.25784414	      1.50521932	      0.65844960	     -0.25065661	    -46.79361140	     -2.87278146	     -8.68056867	    -40.71005260	      1.23328936	     17.70438664	      0.00000000	    -16.52123563	      3.07284503	     -4.11713885	    -16.73032034	      5.09420848	      6.05727519	      0.00000000	    -65.31224750	     -1.53275836	      1.20723243
